<?xml version="1.0" encoding="UTF-8"?>
<svg width="264px" height="83px" viewBox="0 0 264 83" version="1.1" xmlns="http://www.w3.org/2000/svg" xmlns:xlink="http://www.w3.org/1999/xlink">
    <!-- Generator: Sketch 51.3 (57544) - http://www.bohemiancoding.com/sketch -->
    <title>Herrerasaurus</title>
    <desc>Created with Sketch.</desc>
    <defs></defs>
    <g id="Herrerasaurus" stroke="none" stroke-width="1" fill="none" fill-rule="evenodd">
        <path d="M104.165455,46.0346864 C103.19948,46.2395259 102.149788,46.3730242 101.126282,46.3432282 C98.3273437,46.2617463 93.1880233,44.1687525 91.9706456,43.5330269 C92.0224614,43.6881458 92.0539492,43.8409457 92.065109,43.9914263 C92.2212554,46.0969404 90.9196246,51.0517577 90.2585882,53.3907526 C89.5975519,55.7297475 88.9845416,58.3475402 88.9567111,59.3637235 C88.9288806,60.3799069 89.9603337,65.7063724 89.6083885,66.8789484 C89.3737584,67.6606658 88.7585315,68.6444212 87.762708,69.8302147 C84.7655501,73.034747 82.514562,75.4050204 81.0097437,76.9410351 C78.7525164,79.2450572 79.7554001,78.6813045 79.6369357,79.1874258 C79.5184713,79.6935472 78.3444175,80.0757858 77.3166587,80.4629502 C76.6314861,80.7210598 74.9010683,80.9666087 72.1254051,81.1995969 C69.0706159,81.2537802 67.293075,81.2537802 66.7927824,81.1995969 C66.2924899,81.1454136 65.8985116,80.8998647 65.6108474,80.4629502 L64.2055294,80.4629502 C63.352717,80.8148133 62.9303335,80.8148133 62.9383789,80.4629502 C62.950447,79.9351555 64.5032914,79.4701642 65.6108474,79.1874258 C66.3492182,78.9989336 67.1939031,78.8666771 68.1449023,78.7906563 C70.4435881,78.4980664 72.061945,78.2018643 72.999973,77.90205 C74.407015,77.4523285 75.0941579,76.2287709 75.5584103,75.9984918 C76.0226628,75.7682128 78.5264242,73.7971718 80.4156977,71.9598651 C82.3049711,70.1225583 82.7894191,68.4081492 83.5048851,66.2661845 C84.2203511,64.1242198 83.5295139,59.9730395 82.4613638,53.9136216 C81.7513162,49.8856525 81.5634949,45.3197853 81.8979,40.2160202 C76.8449461,38.9091354 73.453221,37.9891067 71.7227247,37.4559341 C70.2597387,37.0051825 66.9757732,35.926583 63.804844,34.8460181 C63.5705797,35.2851348 63.4032872,35.5697605 63.3029664,35.6998953 C63.0694312,36.002834 62.6379899,36.815668 62.0086426,38.1383975 L60.9937875,41.4919173 C60.8137148,42.60446 60.1262918,43.3163073 58.9315185,43.6274593 C57.1393586,44.0941872 50.8594146,46.2526631 49.2147167,47.3442073 C48.1182514,48.0719034 46.8122746,49.2286131 45.2967862,50.8143363 C44.7853004,51.6698605 44.3985538,52.2660173 44.1365463,52.6028067 C43.743535,53.1079908 40.9468094,57.2123749 40.5853171,57.6572656 C40.2238247,58.1021564 38.3425501,59.6904623 37.6876983,60.0926928 C37.0328465,60.4949232 36.6915814,60.6420205 36.7382805,60.2639352 C36.7849795,59.8858499 38.5997362,58.4634917 39.2954922,57.8007814 C39.9912481,57.138071 42.1687533,53.1957444 42.207829,52.8698715 C42.2469047,52.5439986 42.7943032,51.8030691 42.3936543,52.0403262 C42.1265549,52.1984975 41.7196557,52.619854 41.1729567,53.3043955 C39.6391586,55.0692555 38.6769717,56.0656291 38.2863961,56.2935165 C37.7005326,56.6353477 36.4905208,57.7365003 35.8913027,57.8924004 C35.2920845,58.0483006 35.2402858,57.7258302 35.6098338,57.3832156 C35.9793818,57.0406011 37.6875908,55.865562 38.1521385,55.3075725 C38.461837,54.9355794 39.1579283,54.2147558 40.2404125,53.1451015 C40.8642346,52.4278155 41.3444422,51.8067939 41.6810355,51.2820368 C42.0176288,50.7572796 42.1680549,50.3001612 42.1323137,49.9106814 C41.8885815,49.7510921 41.6472731,49.7702835 41.4083887,49.9682556 C41.1695043,50.1662277 40.562124,50.5774977 39.5862479,51.2020655 C38.7487322,51.8564746 38.217362,52.2697214 37.9921373,52.4418059 C37.7669126,52.6138904 37.5259995,52.790712 37.2693979,52.9722707 C36.6377811,53.3554566 36.3867058,53.3705801 36.5161721,53.0176413 C36.7103715,52.4882332 37.0158351,52.2860798 38.9048728,50.5440693 C40.7939106,48.8020587 41.7757977,48.2557662 42.2038562,47.8624895 C42.6319147,47.4692129 43.3910889,46.487356 43.9865709,46.0164345 C44.5820528,45.5455129 46.1502372,43.8624015 48.0348862,43.1063166 C49.2913188,42.60226 51.3019622,41.7633313 54.0668164,40.5895306 L56.1798518,39.8105636 C56.447745,39.7232988 56.7254174,39.4357606 57.0128689,38.9479492 C57.3508408,38.3744035 56.8612856,34.647448 56.6671323,32.2696585 C56.4721427,32.1844512 56.3354217,32.1169697 56.2666896,32.0703596 C55.4081304,31.4881353 53.9414868,29.3690753 53.6587484,26.8638362 C53.3760101,24.358597 53.4176327,24.3369237 52.9107725,23.8603569 C52.4039123,23.38379 51.0786378,22.8458976 48.9691831,22.0356108 C46.8597284,21.2253241 38.4465383,16.3934044 35.4423201,14.15588 C32.4381019,11.9183557 31.7366743,12.4833398 29.8648873,12.4557556 C27.9931003,12.4281713 26.7202851,13.5401606 24.3241514,14.6110198 C21.9280178,15.681879 20.2448872,16.9876967 19.1789537,17.6083419 C18.1130203,18.2289871 16.7409511,19.1365575 14.3985082,20.1653015 C12.0560652,21.1940455 9.31562125,22.4808991 8.48193716,22.6308883 C7.64825308,22.7808776 6.77737953,22.4759733 7.21601805,21.5947557 C7.35471897,21.3161078 7.48381588,21.1380065 7.6446257,20.9992551 C7.56827547,20.546125 7.55957187,20.2560617 7.6185149,20.129065 C7.69294299,19.9687048 7.76876384,20.0147294 7.84597746,20.267139 L8.0719053,20.7303597 C8.17384411,20.6799495 8.28796855,20.6283548 8.41784643,20.570291 C8.28754405,19.9270728 8.25843952,19.5277988 8.33053283,19.372469 C8.40496092,19.2121088 8.48078178,19.2581334 8.55799539,19.510543 L8.80187069,20.0105614 C8.92104435,20.1416855 8.98333508,20.2416556 8.98874291,20.3104718 C9.10141324,20.257284 9.22246411,20.1986682 9.35284652,20.1332158 C9.30526989,20.1348473 9.25012791,20.1334933 9.18742058,20.129154 C9.04613134,19.4487927 9.01270076,19.0284319 9.08712885,18.8680717 C9.16155694,18.7077114 9.23737779,18.7537361 9.31459141,19.0061456 L9.55846671,19.5061641 C9.71632438,19.6798513 9.77437696,19.7988767 9.73262444,19.8632403 C9.7087413,19.9000574 9.67545959,19.9444305 9.63814341,19.9861379 C9.83064743,19.8830332 10.0368489,19.762342 10.2534605,19.6279788 C10.235136,19.6272036 10.2160542,19.6261295 10.1962153,19.6247567 C10.054926,18.9443954 10.0214954,18.5240346 10.0959235,18.3636743 C10.1703516,18.2033141 10.2461725,18.2493387 10.3233861,18.5017483 L10.5672614,19.0017667 C10.6889402,19.1356472 10.7513195,19.2370501 10.7543992,19.3059755 C10.8689226,19.2301024 10.9854133,19.1515711 11.1034672,19.0708629 C10.9936428,18.498087 10.9724686,18.1390084 11.0399446,17.993627 C11.1143726,17.8332667 11.1901935,17.8792914 11.2674071,18.1317009 L11.5112824,18.6317194 C11.542957,18.6665703 11.5706134,18.6992204 11.5942514,18.7296697 C11.7202906,18.6407631 11.8474175,18.5502221 11.9751816,18.4585831 C11.8830935,17.9483769 11.8686171,17.6252591 11.9317526,17.4892296 C12.0061806,17.3288694 12.0820015,17.374894 12.1592151,17.6273036 L12.4030904,18.127322 C12.4071995,18.1318431 12.4112409,18.1363272 12.4152147,18.1407742 C12.5898742,18.013888 12.7647591,17.8861081 12.9387417,17.7587771 C12.8373911,17.2156911 12.8194393,16.8736433 12.8848862,16.7326336 C12.9593143,16.5722734 13.0351352,16.618298 13.1123488,16.8707075 L13.3562241,17.370726 C13.3718983,17.387972 13.3865885,17.4046791 13.4002948,17.4208473 C13.5447164,17.3151791 13.6877863,17.210677 13.8288308,17.108143 C13.7509648,16.6494406 13.7417134,16.3561383 13.8010767,16.2282363 C13.8755048,16.067876 13.9513256,16.1139007 14.0285393,16.3663102 L14.2440176,16.8081063 C14.3691229,16.7183517 14.4919572,16.6309277 14.612,16.5464542 C14.5429824,16.1205387 14.5369003,15.8463336 14.5937539,15.7238389 C14.668182,15.5634787 14.7440028,15.6095033 14.8212164,15.8619129 L15.0179117,16.2651979 C15.1020523,16.2079498 15.1843056,16.1527413 15.264456,16.0998293 C15.3118712,16.0685278 15.3599712,16.0354249 15.408679,16.0006342 C15.3459186,15.5983157 15.3420328,15.3379182 15.3970214,15.2194416 C15.4714495,15.0590813 15.5472704,15.105106 15.624484,15.3575155 L15.7928167,15.7026488 C15.9384742,15.5814925 16.0874374,15.4490701 16.2379391,15.3079762 C16.2018506,15.0115379 16.2067459,14.8138939 16.2526251,14.7150442 C16.3270532,14.554684 16.4028741,14.6007086 16.4800877,14.8531182 L16.5529547,15.0025176 C17.9550753,13.5995145 19.3838106,11.6102247 19.4461759,11.0797458 C19.5284361,10.3800423 18.2928103,9.67319637 17.8324985,9.71875961 C17.5831117,9.74344476 17.0503254,9.92482107 16.2341396,10.2628885 C16.4151771,10.4553877 16.5321959,10.6157522 16.3832618,10.661994 C16.2634409,10.6991967 16.0575815,10.6321147 15.7656834,10.4607481 C15.7193533,10.4806524 15.6723017,10.5009556 15.6245287,10.5216577 C15.5330919,10.5566249 15.4430826,10.5910979 15.3545005,10.6250768 C15.6023505,10.8767354 15.8259234,11.1091129 15.6414431,11.1663914 C15.494613,11.21198 15.2185841,11.1009709 14.8133564,10.8333641 C14.5237506,10.9452423 14.2517065,11.0510409 13.9972239,11.1507597 C14.2934108,11.475533 14.7472182,11.8482631 14.5065491,11.9229874 C14.3273146,11.9786371 13.9555622,11.800942 13.3912919,11.3899019 C13.077656,11.5146846 12.7981784,11.6276419 12.5528592,11.7287738 C12.8442856,12.0340782 13.2160053,12.3582557 12.993357,12.4273847 C12.8254144,12.4795285 12.4884472,12.3268029 11.9824554,11.9692079 C11.9412625,11.9870778 11.9017643,12.0043611 11.8639608,12.0210576 C11.7236898,12.0830106 11.4667088,12.1673772 11.1257098,12.266383 C11.4658467,12.6011016 11.7521179,12.9028218 11.5018855,12.9853303 C11.2882192,13.055782 10.876391,12.8944114 10.266401,12.5012185 C10.071588,12.5520024 9.86522621,12.6045112 9.65005054,12.6580942 C9.99389713,12.9961471 10.287069,13.302228 10.0347492,13.3854248 C9.81628502,13.4574585 9.39065936,13.2871417 8.75787227,12.8744743 C8.67066265,12.8951069 8.58272848,12.9157695 8.4942119,12.9364284 C8.82145616,13.4564346 9.29623027,14.0494203 8.95429835,14.0868608 C8.70036987,14.1146652 8.25869791,13.7970321 7.62928246,13.1339616 C7.34575088,13.1973159 7.06098589,13.2595757 6.77931733,13.3197115 C6.89068261,13.7240434 7.42148205,14.4529539 7.11580001,14.448946 C6.91326839,14.4462905 6.58145922,14.1158451 6.12037249,13.4576098 C5.86652634,13.5096061 5.61826725,13.5590835 5.37903498,13.6052238 C5.56240153,13.9960265 5.84458476,14.4521187 5.60260798,14.448946 C5.42841919,14.4466621 5.15860401,14.2019126 4.79316243,13.7146973 C4.44666355,13.7771269 4.12938017,13.8296956 3.85448172,13.8692716 C4.00264292,14.2824202 4.45333851,14.92509 4.16625772,14.9213259 C3.96529202,14.918691 3.63704011,14.5933153 3.181502,13.9451988 C3.01041334,13.9558319 2.88963951,13.9518478 2.83061808,13.9305267 C2.21292836,13.70739 1.66222892,13.4731703 1.4390922,12.8542492 C1.21595548,12.235328 1.36791503,11.262245 1.98535846,10.1677422 C2.39698742,9.43807365 3.31473773,8.7265483 4.7386094,8.03316614 L12.4331318,4.34081994 C13.5414267,3.85530466 14.6052257,3.24024201 15.6245287,2.495632 C17.1534831,1.37871698 19.3688416,1.68485267 19.6244883,1.57402318 C19.880135,1.46319368 22.2974494,0.863482972 23.3013184,0.766938167 C24.3051873,0.670393363 26.0755038,0.489618142 28.2832273,0.766938167 C30.4909508,1.04425819 33.9084399,2.33603753 40.4646202,6.14266124 C47.0208006,9.94928496 49.5156956,10.4785574 51.8694678,10.9176885 C53.4386493,11.2104425 54.9988002,11.2780075 56.5499205,11.1203833 C58.0507982,10.9850892 59.7994413,10.9175243 61.7958499,10.9176885 C64.7904629,10.9179347 68.8278582,9.85421788 75.1037631,9.39341347 C81.379668,8.93260906 88.9079461,9.62812571 91.7932073,9.71875961 C94.6784685,9.80939351 115.846409,11.2671708 121.468667,12.0210576 C127.090924,12.7749445 134.404685,13.0879763 137.381812,13.3891862 C139.366563,13.5899928 144.258412,13.8455574 152.057361,14.15588 L169.598222,15.5210531 C179.74692,16.550536 186.387248,17.1966309 189.519208,17.4593378 C194.217147,17.8533982 194.632881,18.000432 199.194376,17.8743327 C203.755872,17.7482334 199.95442,18.0844162 212.601544,17.1561576 C221.032959,16.5373185 226.00986,16.1040162 227.532247,15.8562507 L236.75597,15.2452108 C244.761308,14.8421198 249.196293,14.5948469 250.060928,14.503392 C251.357879,14.3662098 254.110707,14.1924724 254.28427,14.1763219 C255.976431,14.0188619 257.40605,13.877739 258.573125,13.7529532 C261.488187,13.3703862 262.982087,13.3696474 263.054824,13.7507366 C263.127561,14.1318259 261.588509,14.7080572 258.437667,15.4794305 C256.812004,15.7347488 255.673005,15.9298087 255.020671,16.0646102 C254.042169,16.2668125 251.595433,16.4180751 250.381841,16.6268852 C247.649278,17.0970485 230.979783,18.2863721 223.278611,19.7032657 C215.577439,21.1201592 202.65472,23.1591756 199.132558,23.3778791 C195.610397,23.5965827 161.760114,27.7738695 152.057361,29.3304082 C142.354608,30.8869468 133.01513,31.8489469 128.60584,33.2362858 C124.19655,34.6236248 122.6362,35.6962283 117.418957,38.4442869 C115.904736,39.2418668 115.081656,39.6492134 114.630328,39.8740951 C114.688803,41.5374231 114.092551,43.6425105 114.271153,43.6609081 C114.483946,43.6828277 117.947244,45.5888488 118.787085,46.1112251 C119.626927,46.6336015 121.407587,49.0065841 121.859279,49.6223035 C122.310971,50.2380229 125.230466,53.1188509 126.346149,54.0983374 C127.461833,55.0778238 131.60464,55.8418085 133.379389,56.2400558 C134.562556,56.505554 135.410442,57.4011384 135.923049,58.926809 C137.328367,61.2606319 138.272635,62.9040281 138.755851,63.8569975 C139.480676,65.2864517 142.265698,68.7975301 142.69547,69.111547 C143.125242,69.4255639 144.146352,69.1228763 144.860093,69.111547 C145.573835,69.1002178 143.722983,70.2200883 144.011386,70.3516059 C144.299789,70.4831236 144.668235,71.041458 144.860093,72.4275655 C145.051952,73.8136731 144.578094,75.3711969 144.411357,76.2871411 C144.24462,77.2030853 143.065641,78.6399281 141.946755,79.6164591 C140.82787,80.5929901 138.789593,80.6759891 137.951475,80.6619507 C137.113358,80.6479123 137.136755,80.4969379 136.570786,80.2846378 C136.004817,80.0723378 135.394269,80.4375825 135.057348,80.2846378 C134.720426,80.1316931 135.603368,79.7622615 135.923049,79.6164591 C136.242731,79.4706568 137.95911,78.7015001 139.318619,78.2778851 C140.678127,77.8542702 140.492919,77.215646 141.056918,76.2871411 C141.620917,75.3586362 140.304262,73.8821411 139.757504,73.1442629 C139.210745,72.4063848 138.770136,72.2009808 138.755851,71.6699844 C138.746328,71.3159867 138.478203,70.6128352 137.951475,69.5605296 C136.083301,66.7645067 134.980178,65.1106023 134.642107,64.5988163 C134.135,63.8311373 133.271023,62.9829223 132.857259,62.7381122 C132.443496,62.4933022 129.905008,61.0732069 129.152106,60.6929386 C128.399204,60.3126703 127.523898,59.9506273 126.085084,59.1969867 C124.646271,58.4433461 121.600923,56.8978904 121.387884,56.8978904 C121.174845,56.8978904 118.169888,56.1009032 112.60674,54.0983374 C109.177947,52.8640751 106.364186,50.1761914 104.165455,46.0346864 Z" id="Combined-Shape" fill="#D8D8D8" fill-rule="nonzero"></path>
    </g>
</svg>