<?xml version="1.0" encoding="UTF-8"?>
<svg width="250px" height="87px" viewBox="0 0 250 87" version="1.1" xmlns="http://www.w3.org/2000/svg" xmlns:xlink="http://www.w3.org/1999/xlink">
    <!-- Generator: Sketch 52.6 (67491) - http://www.bohemiancoding.com/sketch -->
    <title>bodyshape-large-ornithopods</title>
    <desc>Created with Sketch.</desc>
    <g id="Symbols" stroke="none" stroke-width="1" fill="none" fill-rule="evenodd">
        <g id="dino-bodyshape/large_ornithopods-copy" fill="#D8D8D8" fill-rule="nonzero">
            <g id="bodyshape-large-ornithopods">
                <path d="M192.001463,60.773796 L197.839705,49.825258 C199.34169,48.461551 200.271,47.614561 200.627637,47.284286 C201.162591,46.788875 203.067636,45.755525 204.206933,45.044242 C205.346229,44.332959 214.772223,40.095601 219.805422,36.6777116 C224.838621,33.2598219 227.147555,32.3958367 229.440076,31.8666023 C230.968423,31.5137793 232.163428,31.3111714 233.025092,31.2587785 L235.453652,31.2587785 L236.779473,31.2587785 L240.154587,31.8666023 C241.10512,32.3278586 241.809025,32.5584868 242.266302,32.5584868 C242.723579,32.5584868 243.807913,32.0188898 245.519303,30.9396959 L246.118174,30.2624847 C248.467232,29.4215457 249.641761,28.8390065 249.641761,28.5148669 C249.641761,28.0286576 250.447799,27.7911488 249.641761,26.6172828 C248.835723,25.4434169 248.413678,23.6371059 247.265926,22.7159196 C246.118174,21.7947333 240.804938,16.9890954 238.792206,16.9890954 C236.779473,16.9890954 238.733761,16.4715499 237.756617,15.5491201 C236.779473,14.6266903 234.994799,14.1295382 233.810488,14.1295382 C233.020947,14.1295382 232.437413,13.5726151 232.059886,12.4587689 C231.082327,9.6778009 230.593548,8.0448341 230.593548,7.5598683 C230.593548,6.8324196 229.397051,5.7013302 226.881446,5.7013302 C225.204376,5.7013302 224.081411,6.0817589 223.51255,6.8426163 C221.838004,8.6254666 221.000732,9.8969889 221.000732,10.6571831 C221.000732,11.4173774 221.13584,12.3112895 221.406058,13.3389196 C219.490899,13.5781694 218.305676,13.8417089 217.850388,14.1295382 C217.167457,14.5612821 208.684037,18.6180831 207.790954,18.6180831 C207.195566,18.6180831 206.259623,18.6180831 204.983127,18.6180831 C205.582661,17.5320913 205.582661,16.7379909 204.983127,16.2357819 C204.083826,15.4824684 202.445139,16.9890954 202.445139,16.9890954 C202.445139,16.9890954 202.193786,16.8575329 201.69108,16.5944079 C202.400041,15.0108495 202.400041,13.9256867 201.69108,13.3389196 C200.982118,12.7521524 200.209903,13.3463806 199.374435,15.1216041 L198.408732,14.5769502 C198.788083,12.4986438 198.788083,11.4594906 198.408732,11.4594906 C197.839705,11.4594906 197.185872,10.7651191 196.393015,11.1123049 C195.864444,11.343762 195.451186,11.9175139 195.153243,12.8335604 L194.419577,12.4587689 C194.471804,10.7538447 194.305009,9.7592089 193.919192,9.4748614 C193.340466,9.0483402 192.392171,8.9172751 192.001463,9.4748614 C191.740991,9.8465856 191.601055,10.2406929 191.581657,10.6571831 L190.340642,10.1722173 C190.104542,7.9524833 189.785377,6.8426163 189.383145,6.8426163 C188.779798,6.8426163 187.808126,6.5198032 187.470639,7.5598683 C187.245648,8.253245 187.101319,8.7327394 187.037652,8.9983514 L185.427814,8.3768491 C185.59063,5.9470462 185.430964,4.7321447 184.948817,4.7321447 C184.46667,4.7321447 183.944814,4.7321447 183.383248,4.7321447 C182.865122,5.0977343 182.606059,5.4207961 182.606059,5.7013302 C182.606059,5.9818642 182.606059,6.362293 182.606059,6.8426163 L182.606059,7.5598683 L181.134748,7.1830872 C181.450597,5.0097773 181.450597,3.9231223 181.134748,3.9231223 C180.660973,3.9231223 180.452562,2.9059376 179.082223,3.41453 C178.168664,3.7535915 177.678475,4.3852076 177.611658,5.3093783 L177.611658,6.0597075 L176.119207,5.7013302 C175.914112,3.6404328 175.601164,2.6099842 175.180363,2.6099842 C174.759561,2.6099842 174.115179,2.6099842 173.247214,2.6099842 C172.776673,2.9460613 172.541403,3.383774 172.541403,3.9231223 C172.541403,4.4624706 172.541403,4.9245559 172.541403,5.3093783 L170.350103,4.7321447 C170.196406,2.561156 169.888764,1.4756616 169.427176,1.4756616 C168.734794,1.4756616 168.170493,1.1297194 167.577094,1.4756616 C166.983695,1.8216039 166.673565,3.41453 166.673565,3.41453 C166.673565,3.41453 166.673565,3.5840607 166.673565,3.9231223 L164.038833,3.9231223 C163.938027,1.7080307 163.247717,0.6004849 161.967905,0.6004849 C160.688093,0.6004849 159.966115,0.8922105 159.801973,1.4756616 L159.801973,3.41453 L157.937466,3.41453 C158.015226,1.818205 157.576933,0.88019 156.622587,0.6004849 C155.668241,0.3207798 155.052376,0.3207798 154.774992,0.6004849 L154.774992,3.41453 L153.419823,3.41453 C153.332447,1.5384999 153.029447,0.6004849 152.510823,0.6004849 C151.9922,0.6004849 151.472748,0.6004849 150.952467,0.6004849 C150.387917,0.8027612 150.105642,1.0944868 150.105642,1.4756616 C150.105642,1.8568364 150.105642,2.5031259 150.105642,3.41453 L148.920584,3.41453 C148.509897,1.5384999 148.117779,0.6004849 147.744231,0.6004849 C147.370683,0.6004849 146.72141,0.6004849 145.79641,0.6004849 C145.195881,0.799611 144.895617,1.0913366 144.895617,1.4756616 C144.895617,1.8599866 144.895617,2.5062761 144.895617,3.41453 L142.710287,3.41453 L142.389712,1.0779897 C142.31991,0.7596532 142.093758,0.6004849 141.711257,0.6004849 C141.328756,0.6004849 140.737263,0.6004849 139.93678,0.6004849 L139.13099,1.0779897 L139.13099,3.41453 L137.009825,3.41453 L137.009825,1.962617 C136.891443,1.3728655 136.530164,1.0779897 135.925988,1.0779897 C135.321812,1.0779897 134.545784,1.0779897 133.597904,1.0779897 C133.284873,1.2361631 133.128357,1.5310389 133.128357,1.962617 C133.128357,2.3941951 133.128357,2.8781661 133.128357,3.41453 L130.560277,3.41453 C130.180926,2.1219511 129.654096,1.4756616 128.979786,1.4756616 C127.968321,1.4756616 126.864092,1.8054384 126.864092,2.6099842 C126.864092,3.146348 126.864092,3.6996235 126.864092,4.2698107 L125.36791,4.2698107 L125.36791,2.6099842 C124.743838,2.1784061 124.195536,1.962617 123.723006,1.962617 C123.014209,1.962617 122.2313,2.154365 122.2313,2.6099842 C122.2313,2.9137303 122.2313,3.6211171 122.2313,4.7321447 L120.18176,4.7321447 C120.221718,3.317371 120.035359,2.6099842 119.622682,2.6099842 C119.210005,2.6099842 118.638989,2.6099842 117.909634,2.6099842 C116.845362,2.8072865 116.313226,3.0754684 116.313226,3.41453 C116.313226,3.7535915 116.313226,4.3852076 116.313226,5.3093783 L114.046073,5.7013302 L114.046073,3.9231223 C113.742161,3.5840607 113.449441,3.41453 113.167912,3.41453 C112.886383,3.41453 112.111598,3.41453 110.843558,3.41453 C110.125974,3.6764944 109.767182,3.961588 109.767182,4.2698107 C109.767182,4.5780334 109.767182,5.1746656 109.767182,6.0597075 L109.767182,6.4999072 L107.22049,6.8426163 L107.22049,5.3093783 C107.219661,4.6163332 107.066213,4.2698107 106.760146,4.2698107 C106.454078,4.2698107 105.70748,4.2698107 104.52035,4.2698107 C103.87091,4.1932109 103.54619,4.3473223 103.54619,4.7321447 C103.54619,5.1169671 103.54619,5.933948 103.54619,7.1830872 L101.193982,7.5598683 L101.193982,6.0597075 C101.149879,5.8207893 100.889158,5.7013302 100.411819,5.7013302 C99.9344803,5.7013302 99.1244631,5.7013302 97.9817676,5.7013302 C97.5959504,5.9840196 97.4030418,6.3644484 97.4030418,6.8426163 C97.4030418,7.3207843 97.4030418,7.8321952 97.4030418,8.3768491 L95.1435986,8.3768491 L95.1435986,6.8426163 C94.8418421,6.6141436 94.5007081,6.4999072 94.1201964,6.4999072 C93.7396848,6.4999072 93.2320044,6.4999072 92.5971552,6.4999072 C91.9972898,6.7041731 91.6973571,6.9318998 91.6973571,7.1830872 C91.6973571,7.4342746 91.6973571,8.0393627 91.6973571,8.9983514 L88.7328483,9.4748614 L88.7328483,8.3768491 C88.5965605,7.8321952 88.3156119,7.5598683 87.8900026,7.5598683 C87.4643933,7.5598683 86.9663293,7.5598683 86.3958106,7.5598683 C85.8150123,7.6901873 85.5246131,7.9625143 85.5246131,8.3768491 C85.5246131,8.791184 85.5246131,9.3896401 85.5246131,10.1722173 L82.7943801,10.6571831 L82.7943801,8.9983514 C82.8298613,8.9983514 82.537887,8.9983514 81.9184572,8.9983514 C80.9893125,8.9983514 79.2262754,9.4748614 79.2262754,9.4748614 C79.2262754,9.4748614 78.7798581,10.2020614 78.7798581,10.6571831 C78.7798581,10.9605976 78.7798581,11.2280335 78.7798581,11.4594906 L76.3910908,11.9700726 L75.9941649,10.6571831 C75.3044358,10.6571831 74.7857297,10.6571831 74.4380465,10.6571831 C73.9165217,10.6571831 72.7160449,11.4594906 72.7160449,11.4594906 C72.7160449,11.4594906 72.7160449,11.9175139 72.7160449,12.8335604 L70.419048,13.3389196 L70.419048,11.9700726 C70.1497883,11.6296846 69.8830157,11.4594906 69.6187301,11.4594906 C69.2223016,11.4594906 67.2070822,12.0839773 66.8315446,12.4587689 C66.5811862,12.7086299 66.4351162,13.265553 66.3933345,14.1295382 L66.3933345,14.5769502 L64.0784312,15.1216041 L64.0784312,13.3389196 C62.4214233,13.2046214 61.3464572,13.4681609 60.853533,14.1295382 C60.3606088,14.7909154 60.2051711,15.6125387 60.3872198,16.5944079 L58.0526691,17.3628921 L58.0526691,16.2357819 C57.986349,15.4929967 57.7405501,15.1216041 57.3152724,15.1216041 C56.8899947,15.1216041 56.1407433,15.4929967 55.0675181,16.2357819 C54.7805179,16.5723564 54.6370177,16.9480598 54.6370177,17.3628921 C54.6370177,17.7777244 54.6370177,18.1961214 54.6370177,18.6180831 L52.4337809,19.4315821 L52.4337809,17.9804152 C52.3533677,17.5687332 52.1486873,17.3628921 51.8197396,17.3628921 C51.4907918,17.3628921 50.7857262,17.5687332 49.7045426,17.9804152 C49.4022887,18.6165909 49.2511618,19.1003131 49.2511618,19.4315821 C49.2511618,19.762851 49.2511618,20.192854 49.2511618,20.7215911 L46.9544136,21.244608 L46.9544136,19.998619 C47.090204,19.6205944 46.8946426,19.4315821 46.3677293,19.4315821 C45.840816,19.4315821 45.3716842,19.6205944 44.9603337,19.998619 C44.6827841,20.8292784 44.5440092,21.244608 44.5440092,21.244608 C44.5440092,21.244608 44.5440092,21.5013497 44.5440092,22.0148332 L42.7048698,22.3635111 L42.7048698,20.7215911 C41.3484578,20.7215911 40.5411762,20.8504179 40.2039385,21.244608 C39.9791133,21.5074015 39.8097484,21.9978386 39.6958436,22.7159196 L39.6958436,23.4182496 L37.7373279,23.8577032 L37.7373279,22.7159196 C37.4781821,22.4809806 37.1094423,22.3635111 36.6311085,22.3635111 C36.1527747,22.3635111 35.6630007,22.7150906 35.1617865,23.4182496 L35.1617865,24.7565064 L33.6996768,25.1606446 L33.6996768,23.8577032 C32.3880309,23.5377086 31.5550504,23.5377086 31.2007352,23.8577032 C30.84642,24.1776977 30.7064846,24.7366933 30.7809289,25.53469 L29.6640154,25.8580005 L29.6640154,24.7565064 C28.171813,24.487081 27.4257117,24.487081 27.4257117,24.7565064 C27.4257117,25.0259319 27.3016931,25.6461907 27.0536559,26.6172828 L24.6464847,27.1184142 C24.5564552,26.062598 24.0615414,25.53469 23.1617433,25.53469 C22.2619453,25.53469 21.8982624,26.062598 22.0706947,27.1184142 L20.6364394,27.1184142 C20.2948909,26.2781384 19.8847839,25.8580005 19.4061185,25.8580005 C18.6881205,25.8580005 18.099944,26.1161515 18.099944,26.6172828 C18.099944,26.9513704 18.099944,27.2817274 18.099944,27.608354 L15.4547665,27.9376333 C15.6341624,27.0573997 15.5027657,26.6172828 15.0605764,26.6172828 C14.3972924,26.6172828 13.6414919,26.6284744 13.6414919,27.1184142 C13.6414919,27.4450407 13.6414919,27.7181137 13.6414919,27.9376333 L11.944609,27.9376333 L11.944609,27.1184142 C11.8966927,26.7843266 11.639122,26.6172828 11.1718969,26.6172828 C10.7046717,26.6172828 10.3558279,26.7843266 10.1253656,27.1184142 L10.1253656,27.608354 L8.87390512,27.608354 C8.9216556,26.9476399 8.81380252,26.6172828 8.5503459,26.6172828 C8.28688927,26.6172828 7.94053251,26.6172828 7.51127561,26.6172828 C7.22079354,27.0584774 7.0755525,27.3888344 7.0755525,27.608354 C7.0755525,27.8278735 6.7653402,27.9376333 6.14491559,27.9376333 C6.01492818,27.3914872 5.80568824,27.1184142 5.51719577,27.1184142 C5.2287033,27.1184142 4.96566117,27.3914872 4.72806939,27.9376333 L3.37016518,27.9376333 C3.21232333,27.0648607 2.99454467,26.7917876 2.71682922,27.1184142 C2.43911377,27.4450407 2.18096275,27.7181137 1.94237617,27.9376333 L0.0358388698,27.9376333 C-0.129298198,28.3866204 0.27624926,28.7680439 1.25248125,29.0819039 C2.71682922,29.5526937 6.47119141,31.2587785 10.1253656,31.8666023 C12.5614817,32.2718181 30.1202276,32.7587735 62.8016033,33.3274684 C70.26875,33.5098487 74.7985792,33.7789426 76.3910908,34.13475 C78.7798581,34.668461 88.2511156,36.2584027 91.6973571,36.6777116 C95.1435986,37.09702 100.937821,38.693926 102.242006,38.693926 C103.54619,38.693926 105.462676,39.327863 106.760146,39.710613 C108.057616,40.093363 116.234885,41.611679 117.072259,41.611679 C117.909634,41.611679 122.078101,43.293391 123.723006,43.720658 C124.819608,44.005503 126.730042,44.253209 129.454306,44.463775 C126.14427,47.58795 124.489251,50.464999 124.489251,53.094923 C124.489251,55.724847 124.369461,57.848831 124.129879,59.466876 L123.054001,61.489307 L119.21357,66.45859 C118.24712,67.643067 117.940638,68.990029 118.294124,70.499474 C118.647611,72.00892 119.276823,73.813905 120.18176,75.914428 C120.554479,77.690149 120.554479,78.983806 120.18176,79.795398 C119.809041,80.60699 119.809041,81.634372 120.18176,82.877542 C120.853417,83.25623 121.189246,83.596949 121.189246,83.899701 C121.189246,84.353828 122.2313,85.561766 122.2313,85.561766 C122.2313,85.561766 122.86416,86.041177 124.129879,87 L125,87 L125.36791,84.427692 C127.45948,84.797592 128.663439,84.982542 128.979786,84.982542 C129.296133,84.982542 129.999209,84.982542 131.089014,84.982542 L133.128357,85.561766 L133.128357,83.899701 L133.597904,83.383896 L136.666867,83.383896 C135.66676,81.375226 134.643772,80.17906 133.597904,79.795398 C132.552036,79.411736 131.715739,79.151513 131.089014,79.014727 C130.015126,78.630402 129.196404,78.017605 128.632849,77.176334 C127.787516,75.914428 126.864092,73.489599 126.864092,72.737529 C126.864092,71.985459 127.102595,69.56262 128.278451,68.329315 C129.062354,67.507111 131.611534,65.227109 135.925988,61.489307 C139.782834,57.096098 141.711257,54.69216 141.711257,54.277493 C141.711257,53.862827 142.451307,52.378748 143.931406,49.825258 L148.187664,50.513164 C146.818983,53.160994 146.021898,55.315237 145.79641,56.975892 C145.570921,58.636548 145.445494,59.902516 145.420126,60.773796 C144.109972,62.945614 143.454896,64.184888 143.454896,64.491619 C143.454896,64.951714 142.967194,66.635665 143.931406,67.48249 C144.574213,68.04704 145.195881,68.89917 145.79641,70.038881 C146.598717,72.451441 146.999871,73.85179 146.999871,74.239928 C146.999871,74.628067 147.247991,75.892045 147.744231,78.031863 C147.508961,80.411429 148.057511,81.601212 149.389882,81.601212 C151.388438,81.601212 152.694116,81.268948 153.419823,81.601212 C153.903629,81.822721 154.603057,81.953952 155.518109,81.994904 L158.538078,82.877542 L158.538078,81.104557 L159.801973,80.762096 L163.042539,81.104557 C163.011535,80.752231 162.769383,80.315845 162.316085,79.795398 C161.862788,79.274951 161.392495,78.90132 160.905208,78.674505 C160.197241,77.675724 159.625727,77.176334 159.190668,77.176334 C158.755608,77.176334 157.899581,76.864215 156.622587,76.239977 C155.867699,75.924128 155.072189,74.756645 154.236058,72.737529 C153.399927,70.718414 152.657888,68.625434 152.009941,66.45859 C151.676019,64.782184 151.676019,63.534868 152.009941,62.716644 C152.343862,61.89842 153.085902,61.049937 154.236058,60.171195 C158.291201,56.684913 160.318773,54.941772 160.318773,54.941772 C160.318773,54.941772 160.868483,54.326155 161.967905,53.094923 L168.802938,53.094923 C168.203073,55.764307 168.053106,57.711465 168.353039,58.936398 C168.652972,60.16133 169.166207,61.835084 169.892743,63.957659 L171.537399,68.329315 L173.247214,72.737529 C173.686253,74.087475 173.796013,74.954445 173.576494,75.338438 C173.356974,75.722431 173.011944,76.335063 172.541403,77.176334 L171.537399,79.014727 C171.537399,79.951333 171.537399,80.53379 171.537399,80.762096 C171.537399,81.104557 173.247214,80.127662 173.247214,79.795398 C173.247214,79.463134 173.999036,78.334283 173.999036,78.674505 C173.999036,78.90132 173.858188,80.00812 173.576494,81.994904 C173.507521,82.912775 173.648368,83.547707 173.999036,83.899701 C174.349703,84.251695 175.056427,84.612642 176.119207,84.982542 L177.104309,84.982542 L179.082223,85.561766 C179.394591,85.15771 179.550775,84.779686 179.550775,84.427692 C179.550775,83.899701 179.590069,82.388597 179.082223,81.994904 C178.743659,81.732443 178.253471,80.73905 177.611658,79.014727 C178.356101,77.916301 178.728323,77.179236 178.728323,76.803532 C178.728323,76.427829 178.548098,74.172945 178.187648,70.038881 L177.104309,61.489307 L177.104309,54.277493 L177.104309,53.893251 L187.470639,53.893251 C185.470093,59.192725 184.629486,62.283988 184.948817,63.16704 C185.268148,64.050093 186.218764,65.488576 187.800665,67.48249 L190.941005,71.125205 L193.335243,73.302328 C195.373758,74.817577 196.393015,75.984645 196.393015,76.803532 C196.393015,77.62242 196.393015,78.359485 196.393015,79.014727 C196.070699,81.252368 196.070699,82.539973 196.393015,82.877542 C196.715331,83.215111 197.517804,83.383896 198.800435,83.383896 L200.20211,83.383896 L201.69108,83.383896 C201.265802,82.280495 200.911321,81.406562 200.627637,80.762096 C200.20211,79.795398 200.20211,78.887393 200.20211,78.031863 C200.20211,77.176334 201.029785,76.436948 200.20211,75.338438 C199.650327,74.606098 198.518989,72.522403 196.808096,69.087353 C195.271459,66.194636 194.308491,64.484738 193.919192,63.957659 C193.529893,63.43058 192.89065,62.369292 192.001463,60.773796 Z" id="Path-20"></path>
            </g>
        </g>
    </g>
</svg>