<?xml version="1.0" encoding="UTF-8"?>
<svg width="171px" height="85px" viewBox="0 0 171 85" version="1.1" xmlns="http://www.w3.org/2000/svg" xmlns:xlink="http://www.w3.org/1999/xlink">
    <!-- Generator: Sketch 51.3 (57544) - http://www.bohemiancoding.com/sketch -->
    <title>Pachycephalosaurus</title>
    <desc>Created with Sketch.</desc>
    <defs></defs>
    <g id="dino-bodyshape/pachycephalosaurus/1" stroke="none" stroke-width="1" fill="none" fill-rule="evenodd">
        <path d="M76.9828611,83.9686251 C76.1745766,84.2030153 75.4482877,84.4548722 75.1326367,84.4548722 C74.8203533,84.4548722 75.1688257,83.9618492 75.5663924,83.4973932 C75.0265231,83.3213043 74.4702012,83.1849369 73.9737726,83.2458907 C73.1624154,83.3455128 72.7287214,83.0350563 72.6726906,82.3145212 C71.4145014,83.0861269 70.4892234,83.1997368 69.8968564,82.6553508 C69.3044895,82.1109649 71.1456734,80.8065588 75.420408,78.7421327 C78.1938594,78.1798601 80.0536492,77.542956 80.9997774,76.8314203 C82.4189698,75.7641168 82.9885451,74.7707924 83.5314625,71.6860843 C83.8934074,69.6296122 83.6489223,67.6384408 82.7980072,65.7125703 C82.6467693,64.3751563 80.3616373,62.5643223 75.942611,60.2800682 C71.4869539,57.9768792 69.495522,55.1737596 68.6687047,53.5834895 C68.1063006,53.5161906 67.5249415,53.4446532 66.9246275,53.3688773 C68.3212469,55.8173266 69.8940466,59.1322109 70.411796,60.3779669 C71.1270133,62.0988501 70.9586189,62.2226239 72.3275976,66.3792949 C73.6965763,70.5359659 72.6369513,75.1736335 72.3275976,77.3747996 C72.1213618,78.8422437 71.4827612,79.4027828 70.411796,79.0564168 C68.9342663,79.362874 67.7440523,79.4526556 66.841154,79.3257615 C65.9382558,79.1988674 65.1150369,79.1090859 64.3714975,79.0564168 C63.6114507,79.3977211 62.6560032,79.4875027 61.5051549,79.3257615 C60.3543066,79.1640203 59.8729847,78.911944 60.0611892,78.5695327 C58.9905869,78.6574148 58.1426287,78.6574148 57.5173144,78.5695327 C56.5793431,78.4377094 55.3882799,78.8866947 55.6007629,77.3747996 C55.8132459,75.8629046 64.3714975,74.457962 64.3714975,74.457962 C64.3714975,74.457962 65.7408311,74.475008 66.841154,73.0096203 C67.9414769,71.5442326 66.841154,67.9952556 64.3714975,64.313888 C61.901841,60.6325205 58.2619964,58.4805446 54.0592364,55.547699 C52.5723411,54.510087 51.2243032,52.9311186 50.0151225,50.8107937 C49.4890279,50.6890621 48.7886361,50.4070873 47.9139471,49.9648693 C47.1491523,50.5564024 45.8683869,51.0281349 43.9490989,51.2298602 C39.5979266,51.6871869 34.4418831,50.5802512 33.4473294,50.684783 C32.4527757,50.7893148 28.5920766,51.9069675 28.6894812,52.8337107 C28.7544177,53.4515395 28.486532,53.8236359 27.8858244,53.95 L27.1869396,54.9107309 L26.4762531,55.4692874 C25.8304178,55.2145938 25.5075001,55.0872471 25.5075001,55.0872471 C25.5075001,55.0872471 24.0522988,56.0202062 23.9542408,55.0872471 C23.8561828,54.1542879 23.4863443,55.0294401 23.3149359,53.3985982 C23.1435275,51.7677562 23.0213421,50.882468 23.9542408,50.0336891 C24.8871395,49.1849102 26.4966378,47.7011153 31.0302913,47.2246091 L32.2091801,47.1007029 C30.8036133,46.624075 29.7466431,46.2334217 29.3371231,46.1903794 C28.3425694,46.0858476 24.3338627,46.3763925 24.2364581,47.3031356 C24.1715217,47.9209644 23.8321268,48.2292331 23.2182735,48.2279417 L22.3349138,49.022372 C21.5627393,49.9305163 20.949017,50.3845885 20.493747,50.3845885 C19.8108419,50.3845885 20.6554743,48.8458558 20.6554743,48.8458558 C20.6554743,48.8458558 19.6387126,48.7949801 19.7367706,47.862021 C19.8348285,46.9290618 18.6905043,48.3690901 18.8619127,46.7382482 C19.0333211,45.1074062 19.0978676,44.2160599 20.1868513,43.5797894 C21.2758349,42.9435189 23.1586601,41.826782 27.6923136,42.3032881 L30.9104504,42.641528 C30.6241474,42.144316 30.377897,41.6549394 30.2146017,41.2125356 C29.5340402,39.3687406 27.7656599,37.9617077 27.0349547,37.1609719 C26.3042496,36.3602361 25.245693,35.9404783 23.480864,34.666574 C21.7160349,33.3926697 17.9840975,24.9139898 17.024976,22.9980195 C16.3855616,21.720706 15.4980332,20.9822354 14.3623909,20.7826079 L11.3639997,20.7826079 C8.66808026,20.8113967 6.72180598,20.8113967 5.52517685,20.7826079 C3.73023316,20.7394247 1.83130888,19.8445097 1.5585729,19.0530072 C1.37674891,18.5253388 1.82373288,18.1847976 2.89952481,18.0313836 L3.65238977,18.0313836 C4.38423132,17.2885569 4.7158707,16.7656235 4.64730791,16.4625835 C4.57874511,16.1595435 3.99615075,15.8767694 2.89952481,15.614261 C1.67183409,16.2567057 0.856845938,16.2567057 0.454560363,15.614261 C-0.148868,14.6505938 2.18132006,11.445946 2.89952481,10.8618365 C3.37832798,10.4724301 3.96092235,10.4724301 4.64730791,10.8618365 C5.76704064,10.0004453 6.49433659,9.57410594 6.82919577,9.58281834 C7.33148454,9.59588694 7.81615911,8.50892041 8.1076457,7.97708524 C8.30197008,7.62252846 8.62716986,7.62252846 9.08324504,7.97708524 L10.810857,6.32149259 C11.396163,5.8395989 12.0347251,5.37571098 12.7265432,4.92982882 C13.7642704,4.26100559 14.1900653,3.06335228 17.7827937,1.82802521 C21.3755221,0.59269815 22.100015,1.10066892 24.0933835,1.82802521 C26.0867521,2.55538151 27.439229,6.69116147 27.8923685,6.47362813 C28.345508,6.25609479 29.1901372,6.02418196 29.1901372,6.47362813 C29.1901372,6.77325891 29.1901372,7.27441128 29.1901372,7.97708524 C29.4003712,7.83276245 29.7418594,7.83276245 30.2146017,7.97708524 C30.9237153,8.19356943 31.7906464,8.95325278 31.4237313,9.58281834 C31.0568161,10.2123839 28.8469444,10.8430859 29.1901372,10.8618365 C29.53333,10.8805871 31.6078281,11.0607065 31.4237313,12.0914212 C31.3010001,12.7785643 30.5564687,13.2299045 29.1901372,13.4454417 L29.1901372,14.8000304 C29.0757396,16.17801 29.0757396,17.2551278 29.1901372,18.0313836 C29.3045348,18.8076395 30.0490662,20.107681 31.4237313,21.9315082 C32.6704567,23.0036068 33.749279,23.6276798 34.6601983,23.8037271 C35.5711175,23.9797744 36.812445,23.7112052 38.3841808,22.9980195 L42.5917016,21.9315082 C49.3856686,21.1655746 56.328504,21.5210784 63.4202077,22.9980195 C70.5119115,24.4749606 77.2200803,26.9326149 83.5447141,30.3709823 C86.4652152,31.8665761 89.5857694,33.4950372 92.9063767,35.2563656 C97.8872876,37.8983582 104.668684,41.6094094 106.040319,42.3031815 C107.411954,42.9969537 113.839858,47.9246679 114.351238,48.3746823 C114.692158,48.6746919 116.804204,50.656668 120.687378,54.3206108 L127.961474,62.1623385 L135.03883,68.3342686 C137.632758,70.5240166 140.704968,72.3998814 144.25546,73.9618631 C149.581198,76.3048357 152.348616,77.6172355 162.139838,79.0793561 C168.667319,80.0541031 171.670445,80.5543085 171.149217,80.5799722 C170.080432,81.3615313 168.467786,81.8745211 166.311278,82.1189418 C163.076516,82.4855728 153.369387,81.6175053 145.456635,79.7228426 C137.543882,77.8281798 129.034803,72.3899379 127.493845,71.5066711 C125.952887,70.6234042 119.528534,65.4527845 117.286985,63.561815 C115.045436,61.6708456 109.354629,57.8965773 104.99341,55.8027604 C100.632192,53.7089435 96.9378975,53.5961559 92.9734243,53.5143351 C90.3304422,53.4597879 88.4517363,53.4839837 87.3373068,53.5869226 C87.0582755,53.6101638 86.7607464,53.6359638 86.4447197,53.6643225 C89.2465725,57.8720221 90.0472067,66.3110234 90.0472067,69.4102314 C90.0472067,71.7306548 89.7625755,73.6925967 89.193313,75.296057 C88.2000887,77.2806785 87.34147,78.6458433 86.6174567,79.3915515 C85.5314368,80.5101137 83.3865555,83.1423677 82.5434283,83.2458907 C81.7003011,83.3494137 78.3919293,83.93356 77.5798739,84.0332678 C77.4106841,84.0540417 77.2082885,84.0254935 76.9828611,83.9686251 Z" id="Combined-Shape" fill="#D8D8D8" fill-rule="nonzero"></path>
    </g>
</svg>