<?xml version="1.0" encoding="UTF-8"?>
<svg width="250px" height="96px" viewBox="0 0 250 96" version="1.1" xmlns="http://www.w3.org/2000/svg" xmlns:xlink="http://www.w3.org/1999/xlink">
    <!-- Generator: Sketch 47.1 (45422) - http://www.bohemiancoding.com/sketch -->
    <title>dinosaur/bodyshape/sml-theropod-2</title>
    <desc>Created with Sketch.</desc>
    <defs></defs>
    <g id="Symbols" stroke="none" stroke-width="1" fill="none" fill-rule="evenodd">
        <g id="dino-bodyshape/sml-theropod/2" fill="#D5D5D5">
            <path d="M48.373571,50.2657754 C48.373571,50.2657754 43.3451329,49.0482438 40.1217751,43.861494 C36.9016815,38.6747441 34.071655,31.6812818 32.6566418,28.3812163 C31.2432606,25.0795187 29.1998966,18.4010478 26.2148225,18.5577275 C23.2281163,18.7144072 19.4547476,18.5577275 17.0980243,17.3793658 C13.7979587,16.9860346 11.9112744,16.9860346 10.9679322,17.3793658 C10.0262221,17.7726971 5.23117144,18.322708 3.66111059,17.6927252 C2.08941767,17.0643744 0.989395825,16.8293549 1.06773566,16.5143635 C1.14607549,16.2010042 1.69445433,15.8860127 1.69445433,15.8860127 C1.69445433,15.8860127 4.76113243,15.257662 5.70284252,15.0210104 C6.64618469,14.7859909 9.31789946,14.1576401 10.1845339,13.9993284 C11.0479041,13.8426487 17.0196844,12.192616 17.0196844,12.192616 C17.0196844,12.192616 16.3521638,11.642605 15.0938302,11.5642652 C13.8371287,11.4842933 12.5787951,11.4467555 11.7545947,11.642605 C10.9303944,11.8384546 9.35870146,12.4684375 7.90451828,12.3884655 C6.45033511,12.3101257 4.56365077,11.9559644 3.46362893,11.9559644 C2.36523917,11.9559644 0.398582908,11.9967664 0.124393488,11.6034351 C-0.149795932,11.2101039 0.00525165693,10.0317422 0.831084077,8.77340861 C1.28969852,8.07324634 2.48274892,6.83776187 3.55012916,5.79649491 C5.52004958,3.41855452 12.8611449,0.10380028 13.8762986,0.484074893 C14.19129,0.601584644 17.1257696,1.21687876 17.1257696,1.21687876 C17.1257696,1.21687876 20.9481007,0.0515737243 22.363114,0.679924479 C25.1131686,-0.30095553 27.6200433,1.02102917 28.7282255,1.34744515 C30.0648989,1.74240848 31.8732434,2.64494866 32.6974438,2.91913808 C33.5216441,3.19495958 36.4300105,4.29498142 39.4150846,9.16673986 C42.4017907,14.0401304 41.8517798,15.8860127 44.6018344,20.4835818 C47.351889,25.0795187 48.3360332,26.6120417 51.6736365,26.3378523 C55.0145041,26.0620308 56.914245,25.4402084 58.5381645,24.4544321 C61.224568,22.8256164 63.9844151,21.4089711 69.4877885,19.6463248 C74.9895297,17.8853106 85.0839438,16.8701569 86.151324,16.8162983 C87.2203364,16.7624396 89.8904191,17.2977618 89.8904191,17.2977618 C89.8904191,17.2977618 102.922577,14.9638876 105.112828,14.7859909 C108.458592,14.5150656 111.042174,15.6934273 112.431074,15.8550032 C113.821606,16.014947 118.094391,16.014947 124.183682,17.0301007 C130.272972,18.0452544 139.832063,19.3802958 147.577915,20.1277883 C155.322134,20.8752809 163.923195,20.0200711 170.066343,19.1664933 C176.206228,18.3112834 196.396688,15.5334835 203.0213,15.0552841 C209.64428,14.5721884 235.65637,15.3735397 243.988137,19.9123538 C252.323169,24.4544321 249.703681,24.7220932 247.301259,23.1716173 C244.897206,21.6227735 242.067179,20.7153371 237.046902,20.1277883 C232.024992,19.5402396 225.294294,19.4325223 219.901902,19.2203519 C214.506246,19.0065495 205.26541,19.488013 198.586939,20.3938174 C191.911732,21.3028859 177.489043,27.0722882 173.216257,28.7272172 C168.943472,30.3821462 159.810353,34.176732 155.002246,35.4579147 C150.195771,36.7390974 138.444796,37.2205609 136.092968,37.1667023 C133.744405,37.1112116 128.188806,37.3788727 126.692188,37.3788727 C125.197203,37.3788727 122.419403,38.9293486 121.299796,39.5168973 C120.176925,40.1044461 119.21563,41.7593751 118.468138,43.3082189 C117.719013,44.8586948 115.690338,46.4597652 113.821606,47.3688336 C111.952875,48.274638 110.936089,48.8099602 110.616201,49.2914237 C110.294682,49.7712552 109.760992,51.0002114 110.294682,52.6551404 C113.66003,53.8857286 114.51524,56.9817842 114.83676,60.3993594 C115.156648,63.8185668 116.971521,67.9836346 118.362053,70.7630667 C119.74932,73.5408666 123.648359,75.4095981 123.91602,77.5998493 C124.183682,79.7901005 122.739291,81.6049733 121.991798,83.6352807 C121.244306,85.663956 120.976645,89.8290238 120.92605,90.6858658 C120.872191,91.5410756 120.230784,91.8071047 119.53715,92.0747658 C118.841884,92.3407948 118.094391,94.2633849 117.452984,94.6909898 C116.811577,95.1169627 114.033777,94.9064244 113.232426,95.1169627 C112.432706,95.3307651 112.218904,95.5445676 111.202118,94.9064244 C110.188597,94.9064244 109.387245,95.7600021 109.387245,95.7600021 C109.387245,95.7600021 109.121216,95.5984262 109.441104,94.531046 C107.090909,94.797075 107.144768,93.9434972 107.144768,93.9434972 C107.144768,93.9434972 105.702009,93.6236096 104.688487,94.2633849 C105.060602,91.0596121 107.946119,91.6455288 107.946119,91.6455288 C107.946119,91.6455288 109.227301,90.8996682 110.402399,90.3104874 C111.577497,89.7245707 114.942845,88.5478411 114.942845,88.5478411 C114.942845,88.5478411 115.584253,88.2818121 115.90414,87.748122 C117.880589,84.3827733 117.505211,80.3760172 117.079238,78.7210882 C116.881756,77.9523785 116.383972,77.5998493 115.690338,76.103232 C114.409155,72.6856568 108.587526,69.1603642 104.848431,67.1839155 C101.109336,65.2074668 99.3450578,63.7647081 97.0487214,61.1484841 C96.6766072,63.3387353 95.446019,65.7411569 94.6462998,67.236142 C93.8449486,68.7327593 90.9088369,72.0964759 90.5856851,73.0071765 C90.2657974,73.9129808 90.3718826,76.530837 90.6395437,78.185766 C90.9088369,79.8423271 90.2674295,81.4450295 89.4644462,82.0864369 C88.6647271,82.7278443 87.5418561,84.9164634 87.1697419,86.0915609 C86.7927314,87.2682905 86.6050423,88.6506622 86.6050423,88.6506622 L86.6327876,90.6858658 L85.7792098,89.6723442 C85.7792098,89.6723442 85.4038315,90.3104874 84.8701413,91.9686806 C84.3380833,93.6236096 80.491271,93.0360608 79.102371,92.8744849 C77.7151031,92.7145411 74.3481223,93.3559485 73.4945446,93.5158923 C73.4945446,92.9822022 73.7067149,92.3407948 73.7067149,92.3407948 C73.7067149,92.3407948 73.4945446,92.4485121 72.747052,92.5023707 C71.9995594,92.5545972 71.6225489,91.9148219 71.6225489,91.9148219 C71.3042934,91.7548781 70.5029421,91.8071047 69.5938736,92.5545972 C69.7554496,90.0444584 72.2117298,89.9383732 74.2420371,89.6168535 C76.2723445,89.2953337 79.2623149,88.1757269 79.2623149,88.1757269 C79.2623149,88.1757269 79.529976,88.0157831 80.5451297,86.7868269 C81.5586513,85.5578708 83.5351,83.1538171 83.8027611,81.7649172 C84.0704222,80.3776493 84.0165636,79.7362419 83.9072142,78.7210882 C83.8027611,77.7059345 84.7118296,76.3186666 84.9778586,74.8220493 C85.2438876,73.3270642 83.8027611,67.9836346 82.7876074,63.7647081 C81.7740858,59.5474137 82.8936926,56.2865181 83.4812414,53.8857286 C83.269071,53.83187 77.3397248,55.3807138 75.2571908,55.5390255 C73.1730248,55.6989694 69.9153934,55.3807138 69.9153934,55.3807138 L69.0601835,65.9027328 C69.0601835,65.9027328 70.1275638,68.092984 70.662886,68.5205889 C71.1965761,68.9465618 71.7318983,69.5879692 71.2520668,69.9600834 C71.1965761,70.3876883 71.6780397,70.7630667 72.2672205,71.3506154 C71.5180958,71.5644179 71.2520668,71.2428982 70.2891397,70.2832352 C70.4490835,70.5492642 70.9844057,71.5105593 70.8766884,72.3119105 C71.1965761,72.8994592 71.0366323,72.6856568 72.4793909,73.4331494 C71.8918421,74.1806419 70.2891397,74.0206981 69.1679008,72.2041932 C69.6477323,73.2732055 69.4339298,74.5560203 68.9002397,74.9297666 C68.7957866,75.4095981 69.1140422,75.6756271 70.2891397,76.7984981 C68.2049737,77.0661592 67.1914521,74.448303 67.1914521,73.3792907 C67.1914521,72.3119105 66.8699323,70.3876883 66.4439595,69.4280253 C66.0163545,68.4650982 65.8564107,67.236142 65.8564107,66.3825643 C65.8564107,65.5289865 65.4810323,57.9430792 65.4810323,57.9430792 C65.4810323,57.9430792 63.3446398,64.2461717 63.0786108,65.5289865 C62.8125817,66.8101692 63.8277354,69.4280253 64.145991,70.9752371 C64.4658787,72.5257129 63.9338206,72.791742 63.9338206,72.791742 L63.9338206,74.3422179 C63.9338206,74.3422179 63.4523571,73.5408666 63.2924132,72.8994592 C63.0263842,72.6856568 62.8109497,71.8304469 62.3849768,70.1216593 C61.9557398,71.0829543 62.4388354,72.4718543 62.4388354,73.2732055 C62.4388354,74.0745568 61.9035132,74.0206981 61.9035132,74.0206981 L61.529767,77.1200178 C61.529767,77.1200178 60.9944447,74.9819932 60.9944447,74.0206981 C60.0870083,73.7546691 60.5684719,71.2967568 60.5684719,71.2967568 L60.3008108,72.6317981 C60.0347818,73.9668395 59.8209793,74.2883592 59.1795719,74.3422179 C58.8596843,74.5560203 59.1257133,75.4618246 59.3933744,77.1706123 C58.2182769,76.6907808 57.4691522,74.7143321 58.1105596,73.6469518 C57.8967571,72.791742 58.485938,71.4567006 58.9135429,70.6553494 C59.3395157,69.8556303 59.2317985,68.6789007 59.2872892,67.8791815 C59.3395157,67.0778303 60.1016971,65.0866928 60.1016971,65.0866928 C60.7316799,61.1794936 60.6043777,56.8952839 60.6043777,56.8952839 L54.6831918,53.4940294 L54.808862,53.4940294 C48.3833635,53.2410571 47.5020404,48.4541668 47.3747381,47.5728436" id="dinosaur/bodyshape/sml-theropod-2" transform="translate(125.000182, 47.880001) scale(-1, 1) translate(-125.000182, -47.880001) "></path>
        </g>
    </g>
</svg>