<?xml version="1.0" encoding="UTF-8"?>
<svg width="250px" height="103px" viewBox="0 0 250 103" version="1.1" xmlns="http://www.w3.org/2000/svg" xmlns:xlink="http://www.w3.org/1999/xlink">
    <!-- Generator: Sketch 52.6 (67491) - http://www.bohemiancoding.com/sketch -->
    <title>bodyshape-small-ornithopods</title>
    <desc>Created with Sketch.</desc>
    <g id="Symbols" stroke="none" stroke-width="1" fill="none" fill-rule="evenodd">
        <g id="dino-bodyshape/small_ornithopods-copy" fill="#D8D8D8" fill-rule="nonzero">
            <g id="bodyshape-small-ornithopods">
                <path d="M198.55855,50.8219846 C203.76232,46.385552 206.793771,43.5791976 207.652902,42.4029215 C208.512032,41.2266455 209.995656,38.9609861 212.103773,35.6059436 L213.756799,32.4182406 C216.207332,31.0258928 217.95808,29.6665487 219.009045,28.3402086 C220.06001,27.0138683 221.793483,25.1195017 224.209464,22.6571088 C224.536924,22.3471825 225.934944,21.6185205 228.403525,20.4711227 C230.872106,19.323725 233.972401,17.6059803 237.704409,15.3178888 C240.886697,14.0678698 243.396791,13.4428604 245.234689,13.4428604 C247.072589,13.4428604 248.411564,12.7531326 249.251613,11.3736768 C250.249462,10.3918138 250.249462,9.30810303 249.251613,8.12254466 C248.253764,6.93698628 246.146936,5.22027294 242.931128,2.97240472 L240.341361,1.63575086 C237.779957,0.880788892 235.879402,0.503307909 234.639697,0.503307909 C232.780138,0.503307909 230.858699,-0.629134937 229.631112,0.503307909 C228.403525,1.63575086 229.811344,2.97240472 227.010403,2.97240472 C225.14311,2.97240472 221.935812,4.68911807 217.388507,8.12254466 L207.652902,16.4843668 L203.973236,19.3518298 L201.170749,21.5594747 C200.385877,22.2912308 199.149524,22.6571088 197.461689,22.6571088 C195.773854,22.6571088 191.332522,21.9284468 184.137694,20.4711227 C175.436551,19.0483496 169.758351,18.336963 167.103092,18.336963 C164.447833,18.336963 159.425325,18.5023687 152.035568,18.8331803 C149.401968,19.1789467 146.135752,19.7249274 142.23692,20.4711227 C136.388672,21.5904157 133.21412,23.6789375 131.351467,23.6789375 C130.109699,23.6789375 121.593945,23.6789375 105.804205,23.6789375 C76.4249261,22.3883801 54.9670413,22.0477706 41.4305509,22.6571088 C21.1258155,23.5711162 8.79391804,25.3280961 2.25375092,28.3402086 C-4.28641621,31.3523209 4.89225004,28.3402086 10.9381337,28.3402086 C16.9840174,28.3402086 30.97866,27.975104 44.0149032,29.4765191 C52.705732,30.4774624 64.7840915,32.520604 80.2499817,35.6059436 L98.7279844,41.2836286 L120.164726,50.8219846 L129.058734,55.7392935 C132.444719,57.1223586 134.525504,57.8138912 135.301094,57.8138912 C136.076683,57.8138912 136.968559,57.8138912 137.976722,57.8138912 L129.058734,67.1488104 L125,70.2282194 C124.444635,71.0012298 123.791535,71.3877356 123.040698,71.3877356 C121.914443,71.3877356 119.529661,71.8804721 118.194554,74.0796079 C116.859447,76.2787436 112.875785,89.5509129 111.018548,91.810384 C109.161311,94.0698552 108.589675,99.3723797 109.804112,99.3723797 C111.018548,99.3723797 113.442781,102.249124 116.803753,102.249124 C119.044402,102.249124 120.68531,102.249124 121.726477,102.249124 L125,102.249124 L126.281,102.249124 L129.058734,102.249124 C129.838449,102.487887 129.838449,102.06812 129.058734,100.989824 C128.279019,99.9115272 126.926108,99.3723797 125,99.3723797 C124.569947,98.1754758 123.916846,97.5770249 123.040698,97.5770249 C122.16455,97.5770249 121.205893,97.5770249 120.164726,97.5770249 C117.53783,98.3912903 116.881106,97.318409 118.194554,94.35838 C119.508002,91.3983521 121.123383,87.4100496 123.040698,82.3934715 C124.346899,80.7685502 125,79.9560891 125,79.9560891 C125,79.9560891 126.103863,78.4074887 127.581299,77.3500784 C128.566256,76.6451378 134.008274,74.2711849 143.907351,70.2282194 C148.573778,66.7653987 151.283184,64.5433142 152.035568,63.561967 C152.787951,62.5806199 153.353915,61.6170635 153.733458,60.6712988 L159.984327,60.6712988 L155.550473,65.395225 C154.406685,66.7679771 154.406685,67.9166638 155.550473,68.8412861 C156.69426,69.7659083 159.143503,71.5120159 162.898202,74.0796079 C166.80812,78.0080915 168.76308,80.3758565 168.76308,81.1829029 C168.76308,81.9899483 170.095866,83.5223044 172.761439,85.7799713 L172.761439,83.4446938 C174.588508,85.1021035 175.502043,86.4959981 175.502043,87.6263785 C175.502043,89.3219492 177.995892,91.810384 177.995892,91.810384 C177.995892,91.810384 178.857859,92.6597164 180.581793,94.35838 L180.581793,91.810384 L186.361583,94.35838 L186.361583,92.9374117 L189.337339,94.35838 C188.24151,91.808321 186.508295,89.5643209 184.137694,87.6263785 C181.767093,85.6884372 179.719826,83.5406116 177.995892,81.1829029 C177.254338,80.8079999 175.95043,79.5303914 174.084169,77.3500784 C172.217908,75.1697644 168.915464,72.3335003 164.176841,68.8412861 L172.761439,59.1412634 L186.361583,54.3322487 L188.246667,53.1727315 L188.246667,65.395225 L188.246667,67.1488104 C186.989945,68.2771278 186.361583,68.8412861 186.361583,68.8412861 C186.361583,68.8412861 186.361583,69.3035972 186.361583,70.2282194 C186.430685,71.1974483 186.241041,71.8653883 185.792654,72.2320393 C185.344266,72.5986913 184.512725,73.2145478 183.298031,74.0796079 C182.43065,74.552233 182.213804,74.788545 182.647494,74.788545 C183.081185,74.788545 184.129571,74.788545 185.792654,74.788545 C185.249122,75.4581608 184.697469,75.9671417 184.137694,76.3154864 C183.298031,76.8380036 181.996959,78.0594017 182.647494,78.0594017 C183.081185,78.0594017 184.129571,77.8229612 185.792654,77.3500784 L186.969574,76.3154864 C186.718952,77.9231325 186.326645,78.7269555 185.792654,78.7269555 C184.991667,78.7269555 184.739498,79.9560891 184.865582,79.9560891 C184.991667,79.9560891 187.155994,80.1038326 188.246667,78.7269555 C188.973782,77.8090378 189.776831,76.4962339 190.655816,74.788545 L192.223754,70.2282194 C192.588342,68.8688753 192.770637,68.0158041 192.770637,67.6690068 C192.770637,67.3222085 193.147474,64.9896398 193.901146,60.6712988 L193.901146,58.5034901 L198.55855,64.307647 C199.354766,65.8549577 199.553821,66.8020121 199.155712,67.1488104 C198.757604,67.4956076 198.192929,68.0597669 197.461689,68.8412861 L197.461689,71.3877356 L197.461689,72.2320393 C197.385109,73.4637523 196.944844,74.0796079 196.140892,74.0796079 C194.934965,74.0796079 195.17321,74.788545 195.17321,74.788545 C195.17321,74.788545 197.961387,75.4974822 198.55855,74.788545 C199.155712,74.0796079 200.464905,73.3629352 200.464905,72.7974872 C200.464905,72.2320393 202.218877,71.6151527 202.218877,70.2282194 C202.218877,69.3035972 202.218877,68.2771278 202.218877,67.1488104 L201.170749,62.2032678 L198.55855,50.8219846 Z" id="Path-24"></path>
            </g>
        </g>
    </g>
</svg>