<?xml version="1.0" encoding="UTF-8"?>
<svg width="238px" height="69px" viewBox="0 0 238 69" version="1.1" xmlns="http://www.w3.org/2000/svg" xmlns:xlink="http://www.w3.org/1999/xlink">
    <!-- Generator: Sketch 51.3 (57544) - http://www.bohemiancoding.com/sketch -->
    <title>Heterodontosaurus</title>
    <desc>Created with Sketch.</desc>
    <defs></defs>
    <g id="Heterodontosaurus" stroke="none" stroke-width="1" fill="none" fill-rule="evenodd">
        <path d="M77.717807,30.8487013 C77.5453568,31.728428 77.3565379,32.42459 77.1513503,32.937187 C76.7362967,33.974069 72.3799428,41.9753734 72.0287541,42.6613402 C71.7946283,43.1186514 71.7946283,44.3876534 72.0287541,46.4683463 C72.3981769,48.9538361 72.61106,50.8684164 72.6674034,52.2120871 C72.7237467,53.5557577 71.7503194,54.827039 69.7471215,56.0259309 C65.9980086,58.1928711 63.8811211,59.4777368 63.3964587,59.880528 C62.6694653,60.4847149 62.9478999,60.5514517 62.4099029,61.0385756 C61.8719058,61.5256995 62.0086616,61.5541447 61.7192864,61.4269619 C61.5263697,61.3421733 61.5263697,61.8853671 61.7192864,63.0565432 C61.3828673,62.9717546 61.1878536,62.7363524 61.1342454,62.3503366 C61.0806372,61.9643207 61.0806372,61.5270671 61.1342454,61.0385756 L60.6162147,61.4269619 L60.0173613,62.4332105 C59.8580865,62.6449996 59.6422859,62.8539624 59.3699597,63.0600988 C58.9614703,63.3693035 55.9845715,65.4292551 55.7959222,65.592815 C55.6072728,65.7563749 54.6222109,66.4858299 54.2154994,66.9146959 C53.9443583,67.2006066 53.4286069,67.2006066 52.668245,66.9146959 C52.0920475,66.9768742 51.6923561,67.2097236 51.4691707,67.6132442 C51.2459854,68.0167648 51.0246234,68.2198926 50.8050849,68.2226277 L50.8050849,67.6132442 L49.9804478,67.6132442 C49.1548079,67.4939932 48.5797956,67.4939932 48.255411,67.6132442 C47.9310264,67.7324952 47.5282352,67.7324952 47.0470374,67.6132442 C46.6327587,67.3988112 46.4403889,67.1659618 46.4699282,66.9146959 C46.514237,66.5377971 44.8821941,67.5043866 44.3994464,67.6132442 C43.9166986,67.7221018 43.6913252,67.3482116 43.9180662,66.9146959 C44.1448072,66.4811802 45.8788699,65.9470123 46.3030862,65.8276246 C46.585897,65.7480328 46.8338808,65.6697629 47.0470374,65.592815 C47.6053654,65.4917981 48.2044467,65.3482046 48.8442812,65.1620344 C49.8040329,64.8827792 51.1368543,64.2638228 52.668245,63.51741 C54.1996357,62.7709972 55.3620594,61.5240584 56.0390003,60.6545655 C56.4902942,60.0749035 57.2264959,59.622242 58.2476054,59.2965811 L59.7858339,58.2435619 C63.469851,55.5768251 65.8153394,53.5663335 66.822299,52.2120871 C68.3327385,50.1807174 67.5634059,48.7502524 67.588569,47.2650852 C67.613732,45.7799179 66.3648787,40.212592 65.966646,36.7458342 C65.7244869,34.6377527 65.7277835,32.7394008 65.9765357,31.0507785 C65.0158118,31.0507785 64.2754024,31.0507785 63.7553058,31.0507785 C62.091262,31.0507785 58.6555022,30.4892594 53.4480262,29.3662214 C52.7359152,29.4830612 52.0684204,29.5816627 51.4455416,29.6620259 C50.3637047,34.4663904 49.8262037,37.1470351 49.8330384,37.7039599 C49.8404081,38.3044776 49.3223078,38.9442782 48.2787375,39.6233616 C41.4610016,42.8503754 37.9069584,44.5905706 37.616608,44.8439469 C37.1810822,45.2240115 36.5380978,47.5083227 36.2612355,47.7993693 C35.9843732,48.0904159 35.8677705,47.4121186 35.9320074,46.9242553 C35.9748321,46.5990132 35.9290378,46.4100074 35.7946247,46.3572381 L34.2433903,47.637882 C33.270786,48.3840523 32.5712205,48.8835922 32.144694,49.1365018 C31.7181675,49.3894114 31.8149871,48.9463514 32.4351529,47.8073219 L33.6858229,46.2628731 C33.2710821,46.4088185 32.7379769,46.6322538 32.0865072,46.933179 C31.1093027,47.3845669 31.4932608,47.1920576 30.4112495,47.6452661 C29.3292381,48.0984746 29.8484401,47.9205945 28.9258087,48.2319482 C28.0031773,48.543302 23.8221587,49.5791121 22.7439025,49.7011151 C21.6656464,49.823118 21.7272604,49.6052493 21.77786,49.3748159 C21.8115931,49.2211936 22.3181364,49.0374395 23.2974898,48.8235535 L24.1351167,48.5420081 C26.1802126,47.7854041 27.5019205,47.2671465 28.1002406,46.9872352 C28.9977206,46.5673683 28.7863741,46.3494148 28.6324552,46.3300049 C28.4785363,46.3105949 23.6292943,47.516852 22.7511494,47.4212935 C21.8730046,47.325735 22.0740884,47.0337153 22.2740098,46.8810751 C22.4739313,46.7284348 23.0037335,46.4445378 24.2556004,46.1423206 C25.5074673,45.8401034 25.0727821,45.9828363 25.4292381,45.8477488 C25.7856942,45.7126612 27.9687043,45.032664 29.3757876,44.5119801 C30.3138432,44.1648575 31.0376278,43.7853512 31.5471416,43.373461 C30.9425575,43.446988 30.4591864,43.4846982 30.0970283,43.4865917 C29.5537912,43.4894319 26.6719445,43.0949671 26.397646,42.9182453 C26.2147804,42.8004307 26.4636109,42.7292909 27.1441377,42.7048256 L30.3323708,42.389759 C32.1112845,42.0942749 33.1992541,41.8271384 33.5962797,41.5883493 C33.9933052,41.3495602 34.4661942,41.062867 35.0149465,40.7282696 C40.8267498,37.9660995 44.1063784,36.3589161 44.8538322,35.9067194 C45.9750129,35.2284243 45.8634165,35.0425416 45.774115,34.193562 C45.7293623,33.768103 45.6203955,32.2031894 45.4472145,29.4988212 C45.3759582,29.4575942 45.3119746,29.4133943 45.2552637,29.3662214 C43.9054847,28.2434568 41.8650891,25.6987061 41.8650891,25.6987061 C41.8650891,25.6987061 40.9925875,23.5655902 40.3755457,22.7967495 C39.7585038,22.0279087 37.2495831,21.9578898 35.3743885,21.4524406 C33.4991939,20.9469914 29.9845716,18.9115191 27.7130589,16.8577215 C25.4415461,14.8039239 25.0176034,14.5503788 23.8595558,14.1805913 C22.7015083,13.8108038 20.6498988,14.5503788 18.0898314,14.9305597 C16.3831199,15.1840137 14.2712467,15.8264009 11.7542118,16.8577215 C8.998675,17.6707799 6.68066533,18.2182587 4.80018283,18.5001578 C1.97945908,18.9230066 2.04072565,18.0773091 2.53660194,18.0773091 C2.86718613,18.0773091 4.56195434,17.0283926 7.62090658,14.9305597 L3.34701641,16.2874501 C2.47013865,16.667631 1.84917646,16.8577215 1.48412982,16.8577215 C0.936559864,16.8577215 1.02928025,15.1597623 1.48412982,13.5832422 C1.78736286,12.5322288 2.40832506,11.6484221 3.34701641,10.9318221 C5.23806797,8.87636256 6.66269803,7.28681689 7.62090658,6.16318505 C8.57911513,5.0395532 10.1202611,3.94941587 12.2443444,2.89277306 C16.2656923,1.56314266 19.4194618,0.898327455 21.705653,0.898327455 C25.1349398,0.898327455 26.9741676,2.40770048 29.4421983,4.51414903 C31.9102291,6.62059759 31.8551165,8.26344421 34.9157098,10.2310857 C37.9763031,12.1987272 42.6095873,11.121092 43.651666,10.9318221 C44.6937447,10.7425521 44.6800691,10.7242269 46.8268606,10.2310857 C48.9736521,9.73794452 52.2120279,8.08812336 57.1459012,6.62620457 C62.0797745,5.16428579 65.9379273,4.51414903 71.1696546,4.51414903 C74.6574728,4.51414903 80.473603,5.0638277 88.618045,6.16318505 L105.834224,9.36268679 C107.301704,9.61650543 109.405783,9.89644441 112.146459,10.2025037 C116.257473,10.6615927 135.510218,10.9318221 139.065047,11.4432885 C141.434933,11.7842661 147.44717,12.2112175 157.10176,12.7241427 L168.762648,12.7241427 L179.86065,12.7241427 C189.420058,12.7241427 195.913402,12.7241427 199.340683,12.7241427 C204.481605,12.7241427 234.413605,9.79456139 235.937338,9.36268679 C237.46107,8.93081218 237.212995,9.97207033 236.454001,10.1460236 C235.948005,10.2619925 234.825331,10.5239253 233.085981,10.9318221 L227.819244,11.8106144 C204.983954,14.7951715 192.114875,16.4775405 189.212007,16.8577215 C186.309138,17.2379024 175.361028,17.8816828 156.367676,18.7890625 L127.437527,20.9510941 L112.125535,22.2951294 C108.467775,22.6444947 105.368708,23.1702749 102.828333,23.87247 C100.332177,24.5624426 97.2981928,25.5857629 93.7263804,26.9424311 C93.6054045,27.7913941 93.4311787,28.989687 93.1200438,29.5795603 C92.8967672,30.0028649 92.8799007,30.2731854 93.0694441,30.3905218 C94.974178,31.1091276 96.3614282,31.9086016 97.2311946,32.7889438 C98.1009611,33.6692861 99.3932116,35.3384354 101.107946,37.7963918 C101.783519,38.7396416 102.432927,39.4178589 103.056168,39.8310435 C103.67941,40.2442282 105.386212,41.0016726 108.176576,42.1033768 C110.003633,42.7422996 111.060117,43.2736412 111.346027,43.6974016 C111.631938,44.1211621 112.316628,45.3051932 113.400098,47.249495 L115.677628,51.9642857 C116.154268,52.8953187 116.501718,53.4113437 116.719981,53.5123606 C117.047374,53.6638859 117.061596,53.6811172 117.649373,54.0186303 C118.237149,54.3561434 119.190883,54.8200189 119.646827,54.8845676 C120.10277,54.9491163 119.173925,55.2825268 118.645228,55.3085104 C118.11653,55.334494 118.16795,55.7496844 118.645228,56.1908584 C119.122505,56.6320324 119.980511,57.1889017 120.302707,57.56498 C120.624904,57.9410582 121.792524,58.5643909 121.518192,60.7738165 C121.24386,62.9832421 121.485371,66.0263307 118.645228,66.9893645 C116.751799,67.6313871 115.565945,67.9999894 115.087664,68.0951714 L114.174136,68.0951714 C113.881114,68.110488 113.802343,68.0366399 113.937822,67.8736271 C114.073301,67.7106143 114.042303,67.5955571 113.844828,67.5284556 L113.400098,67.7007679 C112.716137,68.0098358 112.381815,68.0525036 112.397132,67.8287712 C112.420107,67.4931727 112.551666,67.1157268 112.145228,67.3397327 C111.874269,67.48907 111.4093,67.609415 110.750319,67.7007679 L110.117687,67.7007679 C109.596557,67.7578406 109.701995,67.5207062 110.434003,66.9893645 C111.166011,66.4580229 111.962613,66.0979907 112.82381,65.9092678 C112.931573,65.6910056 113.12367,65.5588084 113.400098,65.5126761 C113.814742,65.4434777 116.636013,65.2030612 117.15377,63.9235745 C117.671527,62.6440879 117.774367,61.573017 117.649373,60.8348095 C117.524378,60.0966021 116.721348,58.6800862 116.576387,58.3584367 C116.431426,58.0367872 116.05863,57.3368714 114.623515,55.3085104 C113.188401,53.2801493 109.822295,49.7988954 108.784319,48.8180833 C107.746343,47.8372712 106.362922,46.425405 105.05964,45.8515779 C103.756358,45.2777509 96.7424296,42.3265622 95.4416091,41.7043236 C94.1407886,41.082085 87.4788698,38.8496844 85.8968795,37.1528193 C84.9107024,36.0950319 83.5988107,33.8640021 81.9612044,30.45973 L77.717807,30.8487013 Z" id="Combined-Shape" fill="#D8D8D8"></path>
    </g>
</svg>